<svg
        class="categories__card-image"
        width="40"
        height="40"
        viewbox="0 0 40 40"
        fill="none"
        xmlns="http://www.w3.org/2000/svg"
>
    <path
            d="M27.5189 21C27.193 20.9991 26.8701 21.0628 26.569 21.1876C26.2678 21.3123 25.9944 21.4955 25.7646 21.7266L25.0001 22.4912L24.2357 21.7268C24.0053 21.4964 23.7318 21.3136 23.4308 21.1889C23.1298 21.0642 22.8071 21 22.4813 21C22.1554 21 21.8328 21.0642 21.5318 21.1889C21.2307 21.3135 20.9572 21.4963 20.7268 21.7267C20.4964 21.9571 20.3136 22.2306 20.1889 22.5316C20.0642 22.8327 20 23.1553 20 23.4811C20 23.807 20.0642 24.1296 20.1888 24.4307C20.3135 24.7317 20.4963 25.0052 20.7267 25.2356L24.558 29.067C24.616 29.1251 24.6849 29.1711 24.7608 29.2025C24.8366 29.2339 24.9179 29.2501 24.9999 29.2501C25.082 29.2501 25.1633 29.2339 25.2391 29.2025C25.315 29.1711 25.3839 29.1251 25.4419 29.067L29.2735 25.2356C29.6205 24.8886 29.8568 24.4465 29.9526 23.9652C30.0483 23.4839 29.9992 22.985 29.8113 22.5316C29.6235 22.0782 29.3055 21.6907 28.8974 21.4181C28.4894 21.1455 28.0097 21 27.5189 21ZM28.3895 24.3516L25.0001 27.7412L21.6106 24.3516C21.385 24.1196 21.2597 23.8082 21.2619 23.4846C21.2642 23.161 21.3937 22.8513 21.6225 22.6224C21.8514 22.3936 22.1611 22.2641 22.4847 22.2619C22.8083 22.2597 23.1197 22.385 23.3517 22.6106L24.558 23.817C24.616 23.875 24.6849 23.921 24.7608 23.9525C24.8366 23.9839 24.9179 24 24.9999 24C25.082 24 25.1633 23.9839 25.2391 23.9525C25.315 23.921 25.3839 23.875 25.4419 23.817L26.6485 22.6106C26.8803 22.3842 27.192 22.2584 27.516 22.2603C27.84 22.2623 28.1501 22.3918 28.3792 22.6209C28.6083 22.85 28.7378 23.1601 28.7398 23.4841C28.7417 23.8081 28.6159 24.1198 28.3895 24.3516Z"
            fill="black"
    />
    <path
            d="M37.1937 11.3373L20.3187 1.33729C20.2219 1.27996 20.1115 1.24981 19.999 1.25C19.8866 1.25019 19.7762 1.28073 19.6797 1.33838L2.80469 11.4103C2.71181 11.4658 2.6349 11.5444 2.58149 11.6384C2.52809 11.7325 2.50001 11.8388 2.5 11.947V38.197C2.5 38.3627 2.56585 38.5217 2.68306 38.6389C2.80027 38.7561 2.95924 38.822 3.125 38.822H3.12633L36.8763 38.75C37.0419 38.7497 37.2005 38.6837 37.3174 38.5665C37.4343 38.4493 37.5 38.2906 37.5 38.125V11.875C37.5 11.7665 37.4717 11.6599 37.418 11.5656C37.3643 11.4713 37.287 11.3926 37.1937 11.3373ZM15 21.3022V23.125C15 23.2411 15.0323 23.3549 15.0933 23.4536C15.1544 23.5523 15.2417 23.6321 15.3455 23.684L17.5234 24.773C17.9287 24.974 18.2823 25.2655 18.5568 25.625C18.8314 25.9845 19.0196 26.4023 19.1069 26.8461L19.3872 28.2476C19.4114 28.3686 19.4709 28.4797 19.5581 28.567L19.6215 28.6303C19.8393 28.8477 19.9691 29.1378 19.9861 29.445C20.0031 29.7523 19.9061 30.0549 19.7137 30.295L19.5122 30.5469L19.3107 30.7988C19.0588 31.1137 18.7433 31.3719 18.3848 31.5565C18.0263 31.7412 17.6329 31.8482 17.2303 31.8705C16.8277 31.8928 16.4249 31.8299 16.0482 31.6859C15.6715 31.542 15.3294 31.3202 15.0443 31.035L14.8172 30.8079C14.7 30.6907 14.541 30.6249 14.3752 30.6249C14.2095 30.6249 14.0505 30.6907 13.9333 30.8079C13.8161 30.9251 13.7502 31.0841 13.7502 31.2499C13.7502 31.4156 13.8161 31.5746 13.9333 31.6918L14.1604 31.9189C14.5428 32.3014 14.9968 32.6047 15.4965 32.8117C15.9962 33.0186 16.5317 33.125 17.0726 33.1249C17.6134 33.1248 18.1489 33.0182 18.6485 32.8111C19.1481 32.6039 19.602 32.3004 19.9843 31.9178L20.762 32.8906C20.843 32.992 20.9536 33.0656 21.0784 33.1012L21.2466 33.1493C22.2234 33.4319 23.0959 33.9947 23.7562 34.7679C24.4165 35.5412 24.8356 36.4911 24.9617 37.5H10.4617L10.2195 36.7126C9.57942 34.6373 9.39829 32.4476 9.68868 30.2953C9.97906 28.143 10.734 26.0796 11.9012 24.2481L12.4025 23.4606C12.414 23.4425 12.4246 23.4238 12.4342 23.4046L12.5788 23.1155C12.8121 22.6447 13.1528 22.2353 13.5733 21.9203C13.9939 21.6053 14.4826 21.3936 15 21.3022ZM21.6134 31.9539L20.7963 30.9325C21.1184 30.4659 21.2721 29.9036 21.2322 29.338C21.1922 28.7724 20.961 28.2373 20.5765 27.8206L20.3326 26.6009C20.2085 25.9702 19.9411 25.3765 19.5509 24.8657C19.1608 24.3549 18.6584 23.9406 18.0826 23.6549L16.25 22.7388V20.8549L18.8066 20.6224C18.9126 20.6128 19.0144 20.5763 19.1023 20.5162C19.1902 20.4562 19.2614 20.3748 19.309 20.2796L19.934 19.0296C20.0066 18.8815 20.0177 18.7107 19.965 18.5545C19.9122 18.3982 19.7999 18.2691 19.6524 18.1954C19.5049 18.1216 19.3342 18.1091 19.1775 18.1607C19.0209 18.2122 18.8909 18.3236 18.816 18.4705L18.3466 19.4092L12.1888 19.9688L11.4917 18.9231L11.5735 18.8685C12.0388 18.5571 12.3928 18.1055 12.5841 17.5793C12.7754 17.0531 12.7941 16.4797 12.6375 15.9421L14.6545 14.9336C14.7914 14.8652 14.8985 14.7489 14.9553 14.6067L15.7209 12.6927C15.8387 12.3974 16.0196 12.1313 16.2509 11.9132C16.4823 11.6951 16.7584 11.5301 17.0602 11.4298L18.5445 10.9349C18.7728 10.8593 19.0083 10.8078 19.2473 10.7811C19.4974 11.0686 19.7221 11.3773 19.9187 11.7038L20.5552 12.7648C21.0099 13.5226 21.2501 14.3897 21.25 15.2735V16.5803C21.25 17.4091 21.5792 18.2039 22.1653 18.79C22.7513 19.376 23.5462 19.7053 24.375 19.7053C25.2038 19.7053 25.9987 19.376 26.5847 18.79C27.1708 18.2039 27.5 17.4091 27.5 16.5803C27.4999 16.3269 27.484 16.0738 27.4523 15.8224C27.7027 16.1457 27.9421 16.4784 28.1706 16.8205C30.2054 19.8801 31.4916 23.3756 31.925 27.0244C32.3009 30.1875 32.0206 33.3941 31.1016 36.4439L30.7812 37.513L26.2205 37.5228C26.0956 36.2409 25.5902 35.0256 24.7693 34.0332C23.9483 33.0409 22.8492 32.3167 21.6134 31.9539ZM10.6805 17.7065C10.6313 17.6328 10.5984 17.5494 10.5839 17.462C10.5694 17.3746 10.5737 17.285 10.5964 17.1994C10.6192 17.1137 10.6599 17.0339 10.7159 16.9652C10.7718 16.8965 10.8417 16.8404 10.921 16.8008L11.4835 16.5196C11.5132 16.7721 11.4727 17.028 11.3663 17.259C11.2599 17.49 11.0917 17.6871 10.8805 17.8286L10.7987 17.8833L10.6805 17.7065ZM24.6038 12.9288C25.1206 13.3865 25.5345 13.9485 25.8183 14.5779C26.102 15.2072 26.2492 15.8896 26.25 16.5799C26.2512 16.9284 26.1547 17.2702 25.9715 17.5666C25.7884 17.863 25.5258 18.1022 25.2136 18.257C24.953 18.3865 24.666 18.4538 24.375 18.4538C24.0841 18.4538 23.7971 18.3865 23.5365 18.257C23.2243 18.1022 22.9617 17.8631 22.7785 17.5666C22.5953 17.2702 22.4988 16.9284 22.5 16.5799V15.2735C22.4999 14.1635 22.1983 13.0745 21.6273 12.1227L20.9907 11.0617C20.9726 11.0315 20.9527 11.0024 20.9342 10.9724C21.9802 11.2567 22.967 11.7253 23.8483 12.3563C24.1061 12.5404 24.3579 12.7312 24.6038 12.9288ZM36.25 37.5014L32.087 37.5102L32.2991 36.8032C33.2672 33.5897 33.5624 30.2111 33.1663 26.8784C32.7098 23.0338 31.3548 19.3506 29.2109 16.1268C28.1643 14.5552 26.8821 13.154 25.4094 11.9724C25.2584 11.8402 25.1007 11.7146 24.9358 11.5967C24.9167 11.5831 24.8968 11.5706 24.8763 11.5592C24.7766 11.485 24.6764 11.4113 24.5751 11.3389C23.376 10.4799 22.0073 9.88691 20.5605 9.59971C19.7575 9.43939 18.9266 9.49112 18.1497 9.74979L16.6653 10.2446C16.1912 10.4021 15.7572 10.6614 15.3937 11.0041C15.0302 11.3469 14.7459 11.7649 14.5607 12.2289L13.8828 13.9223L10.3618 15.6828C10.124 15.8017 9.91421 15.9698 9.74635 16.1759C9.57848 16.3821 9.45638 16.6216 9.38814 16.8786C9.3199 17.1355 9.30709 17.404 9.35055 17.6663C9.39402 17.9286 9.49276 18.1787 9.64023 18.3999L10.1047 19.0964L11.3547 20.9714C11.4171 21.065 11.5036 21.14 11.6051 21.1885C11.7065 21.2371 11.8192 21.2573 11.9312 21.2471L12.4877 21.1965C12.0644 21.5824 11.716 22.0433 11.4603 22.5559L11.3301 22.8164L10.8462 23.5767C9.58167 25.5607 8.76377 27.7961 8.44918 30.1277C8.13459 32.4594 8.33083 34.8315 9.0243 37.0798L9.17164 37.5587L3.75 37.5703V12.3018L20.0012 2.60221L36.25 12.2312V37.5014Z"
            fill="black"
    />
    <path
            d="M16.875 28.3594C17.3496 28.3594 17.7344 27.9746 17.7344 27.5C17.7344 27.0254 17.3496 26.6406 16.875 26.6406C16.4004 26.6406 16.0156 27.0254 16.0156 27.5C16.0156 27.9746 16.4004 28.3594 16.875 28.3594Z"
            fill="black"
    />
    <path
            d="M17.2656 15.625C17.7402 15.625 18.125 15.2402 18.125 14.7656C18.125 14.291 17.7402 13.9062 17.2656 13.9062C16.791 13.9062 16.4062 14.291 16.4062 14.7656C16.4062 15.2402 16.791 15.625 17.2656 15.625Z"
            fill="black"
    />
</svg>