<svg
        class="categories__card-image"
        width="40"
        height="40"
        viewbox="0 0 40 40"
        fill="none"
        xmlns="http://www.w3.org/2000/svg"
>
    <g clip-path="url(#clip0)">
        <path
                d="M22.7384 18.9693C22.8564 19.2 23.0911 19.3333 23.3338 19.3333C23.4351 19.3333 23.5391 19.3099 23.6358 19.2606C23.6751 19.2406 27.5991 17.2473 29.5344 16.6359C29.8851 16.5246 30.0797 16.1499 29.9684 15.7993C29.8577 15.4486 29.4857 15.2533 29.1318 15.364C27.0931 16.0087 23.1958 17.9887 23.0305 18.0726C22.7024 18.2393 22.5718 18.6407 22.7384 18.9693Z"
                fill="black"
        />
        <path
                d="M23.3337 11.3333C23.4351 11.3333 23.5391 11.3099 23.6358 11.2606C23.6751 11.2406 27.5991 9.24727 29.5344 8.63594C29.8851 8.52462 30.0797 8.14993 29.9684 7.79931C29.8577 7.44861 29.4857 7.2533 29.1317 7.364C27.0931 8.00868 23.1958 9.98867 23.0305 10.0727C22.7025 10.2393 22.5718 10.6406 22.7384 10.9693C22.8564 11.1999 23.0911 11.3333 23.3337 11.3333Z"
                fill="black"
        />
        <path
                d="M39.333 10.0002C38.9644 10.0002 38.6664 10.2989 38.6664 10.6669V36.6667C38.6664 37.7693 37.7691 38.6667 36.6664 38.6667H20.6666V37.1327C21.6386 36.7927 24.1705 36 26.6665 36C32.4738 36 36.4171 37.286 36.4564 37.2993C36.6571 37.366 36.8811 37.3327 37.0564 37.2073C37.2304 37.082 37.3331 36.8806 37.3331 36.6666V7.33362C37.3331 7.02097 37.1164 6.75026 36.811 6.68292C36.811 6.68292 36.2884 6.56628 35.395 6.40222C35.0343 6.33558 34.6857 6.57558 34.619 6.9369C34.5524 7.29956 34.7917 7.6469 35.1537 7.71354C35.4944 7.77619 35.7797 7.83151 35.9997 7.87557V35.7807C34.489 35.3846 31.1344 34.6667 26.6664 34.6667C23.7618 34.6667 20.9085 35.6207 20.0258 35.944C19.2411 35.5974 16.8692 34.6667 13.9998 34.6667C9.40782 34.6667 5.62519 35.424 3.99989 35.8087V7.84955C5.33121 7.52221 9.26321 6.6669 13.9998 6.6669C16.4305 6.6669 18.5151 7.42354 19.3331 7.76557V34C19.3331 34.24 19.4624 34.4621 19.6711 34.58C19.8798 34.6987 20.1371 34.6954 20.3431 34.5714C20.4091 34.5321 27.0144 30.5867 32.877 28.6327C33.1497 28.5414 33.333 28.2874 33.333 28.0001V0.666953C33.333 0.448283 33.2257 0.243597 33.0457 0.118988C32.867 -0.00569808 32.6377 -0.0343697 32.4317 0.0423484C27.0978 2.04296 21.7005 5.4016 21.6465 5.43496C21.3344 5.63027 21.2391 6.0416 21.4344 6.35363C21.6291 6.66566 22.0405 6.76097 22.3531 6.56566C22.4024 6.53433 27.0978 3.61302 31.9997 1.64171V27.5228C27.449 29.1042 22.6977 31.6862 20.6664 32.8421V7.33362C20.6664 7.08096 20.5237 6.85026 20.2977 6.73698C20.183 6.68034 17.4511 5.33363 13.9998 5.33363C7.97588 5.33363 3.34458 6.63698 3.1499 6.69292C2.86388 6.77425 2.66654 7.03628 2.66654 7.33362V36.6667C2.66654 36.8754 2.76521 37.0728 2.93123 37.1988C3.04857 37.2874 3.1899 37.3335 3.33326 37.3335C3.39458 37.3335 3.45591 37.3248 3.51591 37.3074C3.56193 37.2948 8.17189 36.0001 13.9998 36.0001C16.4371 36.0001 18.5198 36.7588 19.3331 37.0994V38.6667H3.33326C2.23061 38.6667 1.33327 37.7694 1.33327 36.6667V10.667C1.33327 10.299 1.0346 10.0003 0.666635 10.0003C0.29867 10.0003 0 10.299 0 10.667V36.6667C0 38.5047 1.4953 40.0001 3.33333 40.0001H36.6664C38.5044 40.0001 39.9998 38.5048 39.9998 36.6667V10.667C39.9997 10.2989 39.7017 10.0002 39.333 10.0002Z"
                fill="black"
        />
        <path
                d="M22.7384 14.9693C22.8564 15.2 23.0911 15.3333 23.3338 15.3333C23.4351 15.3333 23.5391 15.3099 23.6358 15.2606C23.6751 15.2406 27.5991 13.2473 29.5344 12.6359C29.8851 12.5246 30.0797 12.1499 29.9684 11.7993C29.8577 11.4486 29.4857 11.2533 29.1318 11.364C27.0931 12.0087 23.1958 13.9887 23.0305 14.0727C22.7024 14.2393 22.5718 14.6407 22.7384 14.9693Z"
                fill="black"
        />
        <path
                d="M22.7384 22.9693C22.8564 23.2 23.0911 23.3333 23.3338 23.3333C23.4351 23.3333 23.5391 23.3099 23.6358 23.2606C23.6751 23.2406 27.5991 21.2473 29.5344 20.6359C29.8851 20.5246 30.0797 20.1499 29.9684 19.7993C29.8577 19.4486 29.4857 19.2533 29.1318 19.364C27.0931 20.0087 23.1958 21.9887 23.0305 22.0727C22.7024 22.2393 22.5718 22.6407 22.7384 22.9693Z"
                fill="black"
        />
        <path
                d="M16.152 12.3718C12.0353 11.4058 7.35734 12.6365 7.1607 12.6891C6.80539 12.7845 6.59406 13.1498 6.68937 13.5058C6.76937 13.8037 7.03867 13.9998 7.33273 13.9998C7.39007 13.9998 7.44804 13.9924 7.50609 13.9771C7.55077 13.9644 12.0547 12.7798 15.8481 13.6698C16.2047 13.7531 16.5654 13.5311 16.6494 13.1724C16.7333 12.8145 16.5106 12.4558 16.152 12.3718Z"
                fill="black"
        />
        <path
                d="M16.152 16.3725C12.0353 15.4072 7.35734 16.6371 7.1607 16.6898C6.80539 16.7851 6.59406 17.1505 6.68937 17.5064C6.76937 17.8044 7.03867 18.0004 7.33273 18.0004C7.39007 18.0004 7.44804 17.9931 7.50609 17.9778C7.55077 17.9651 12.0547 16.7804 15.8481 17.6704C16.2047 17.7538 16.5654 17.5317 16.6494 17.1731C16.7333 16.8151 16.5106 16.4564 16.152 16.3725Z"
                fill="black"
        />
        <path
                d="M22.7384 26.9703C22.8564 27.201 23.0911 27.3342 23.3338 27.3342C23.4351 27.3342 23.5391 27.3109 23.6358 27.2616C23.6751 27.2416 27.5991 25.2482 29.5344 24.6369C29.8851 24.5256 30.0797 24.1509 29.9684 23.8003C29.8577 23.4497 29.4857 23.2543 29.1318 23.365C27.0931 24.0097 23.1958 25.9896 23.0305 26.0736C22.7024 26.2403 22.5718 26.6417 22.7384 26.9703Z"
                fill="black"
        />
        <path
                d="M16.152 20.3726C12.0353 19.4073 7.35734 20.6366 7.1607 20.6899C6.80539 20.7852 6.59406 21.1506 6.68937 21.5066C6.76937 21.8045 7.03867 22.0012 7.33273 22.0012C7.39007 22.0012 7.44804 21.9933 7.50609 21.9779C7.55077 21.9652 12.0547 20.7805 15.8481 21.6705C16.2047 21.7539 16.5654 21.5319 16.6494 21.1732C16.7333 20.8152 16.5106 20.4566 16.152 20.3726Z"
                fill="black"
        />
        <path
                d="M16.152 28.3728C12.0353 27.4068 7.35734 28.6375 7.1607 28.6901C6.80539 28.7854 6.59406 29.1508 6.68937 29.5068C6.76937 29.8047 7.03867 30.0014 7.33273 30.0014C7.39007 30.0014 7.44804 29.9935 7.50609 29.9781C7.55077 29.9654 12.0547 28.7807 15.8481 29.6707C16.2047 29.7534 16.5654 29.5321 16.6494 29.1734C16.7333 28.8154 16.5106 28.4568 16.152 28.3728Z"
                fill="black"
        />
        <path
                d="M16.152 24.3719C12.0353 23.4059 7.35734 24.6359 7.1607 24.6892C6.80539 24.7846 6.59406 25.1499 6.68937 25.5059C6.76937 25.8038 7.03867 26.0006 7.33273 26.0006C7.39007 26.0006 7.44804 25.9926 7.50609 25.9772C7.55077 25.9645 12.0547 24.7799 15.8481 25.6699C16.2047 25.7532 16.5654 25.5312 16.6494 25.1725C16.7333 24.8146 16.5106 24.4559 16.152 24.3719Z"
                fill="black"
        />
    </g>
    <defs>
        <clippath id="clip0">
            <rect width="40" height="40" fill="white" />
        </clippath>
    </defs>
</svg>