<svg width="25" height="24" viewBox="0 0 25 24" fill="none" xmlns="http://www.w3.org/2000/svg">
<path d="M11.338 18H13.3994V16H11.338V18ZM12.3687 2C6.67913 2 2.06152 6.48 2.06152 12C2.06152 17.52 6.67913 22 12.3687 22C18.0582 22 22.6759 17.52 22.6759 12C22.6759 6.48 18.0582 2 12.3687 2ZM12.3687 20C7.82323 20 4.12296 16.41 4.12296 12C4.12296 7.59 7.82323 4 12.3687 4C16.9142 4 20.6144 7.59 20.6144 12C20.6144 16.41 16.9142 20 12.3687 20ZM12.3687 6C10.0908 6 8.24582 7.79 8.24582 10H10.3073C10.3073 8.9 11.2349 8 12.3687 8C13.5025 8 14.4301 8.9 14.4301 10C14.4301 12 11.338 11.75 11.338 15H13.3994C13.3994 12.75 16.4916 12.5 16.4916 10C16.4916 7.79 14.6466 6 12.3687 6Z" fill="#0C0E1A"/>
</svg>
