<svg width="40" height="40" viewBox="0 0 40 40" fill="none" xmlns="http://www.w3.org/2000/svg">
<path d="M36.4489 38.6885H0.983398V39.9999H36.4489V38.6885Z" fill="#0C0E1A"/>
<path d="M21.2426 35.1162L19.9312 32.4932C19.8197 32.2712 19.5932 32.1309 19.3447 32.1309H4.91844C4.66994 32.1309 4.44335 32.2712 4.33183 32.4935L3.02039 35.1165C2.91876 35.3198 2.92961 35.5611 3.0492 35.7545C3.16889 35.9476 3.37973 36.0654 3.6069 36.0654H20.6561C20.8833 36.0654 21.0941 35.9477 21.2138 35.7543C21.3335 35.5608 21.3447 35.3194 21.2426 35.1162ZM4.66793 34.7538L5.32369 33.4424H18.939L19.5948 34.7538H4.66793Z" fill="#0C0E1A"/>
<path d="M6.22941 35.4102H4.91797V38.6888H6.22941V35.4102Z" fill="#0C0E1A"/>
<path d="M7.54093 26.8857H6.22949V33.4431H7.54093V26.8857Z" fill="#0C0E1A"/>
<path d="M18.0326 26.8857H16.7212V33.4431H18.0326V26.8857Z" fill="#0C0E1A"/>
<path d="M19.3442 35.4102H18.0327V38.6888H19.3442V35.4102Z" fill="#0C0E1A"/>
<path d="M36.733 9.76853C36.9432 9.1557 37.0494 8.51866 37.0494 7.86885C37.0494 4.61478 34.4022 1.96721 31.1478 1.96721C30.6875 1.96721 30.2287 2.02167 29.7793 2.12916C28.6619 0.787845 27.0002 0 25.2461 0C21.9917 0 19.3445 2.64757 19.3445 5.90163C16.0901 5.90163 13.4429 8.5492 13.4429 11.8033C13.4429 13.641 14.2868 15.3456 15.7265 16.461C15.5163 17.0738 15.4101 17.7109 15.4101 18.3607C15.4101 21.6147 18.0573 24.2623 21.3117 24.2623C22.4586 24.2623 23.5793 23.9256 24.5333 23.303C25.6471 24.7364 27.3375 25.5738 29.1806 25.5738C32.3288 25.5738 34.9087 23.0961 35.074 19.9886C37.4189 19.166 39.0166 16.9473 39.0166 14.4263C39.0166 12.5885 38.1727 10.8839 36.733 9.76853ZM34.2556 18.8672C33.9573 18.9435 33.7524 19.217 33.7632 19.5246L33.7707 19.6721C33.7707 22.2033 31.7113 24.2623 29.1805 24.2623C27.5605 24.2623 26.0913 23.4292 25.2507 22.0332C25.152 21.8689 24.9854 21.7564 24.7959 21.725C24.7609 21.7191 24.7248 21.7162 24.689 21.7162C24.5352 21.7162 24.3854 21.77 24.2664 21.8706C23.4395 22.5673 22.39 22.951 21.3116 22.951C18.7808 22.951 16.7214 20.8919 16.7214 18.3608C16.7214 17.7152 16.8565 17.0857 17.123 16.4899C17.2555 16.1935 17.1513 15.8447 16.8778 15.6699C15.5483 14.819 14.7542 13.3738 14.7542 11.8034C14.7542 9.27221 16.8135 7.21317 19.3444 7.21317C19.5277 7.21317 19.7254 7.22825 19.9664 7.26101C20.1719 7.28694 20.3746 7.21903 20.5185 7.07409C20.6631 6.92885 20.7316 6.72425 20.7034 6.52167C20.6712 6.28528 20.6559 6.08827 20.6559 5.90163C20.6559 3.37048 22.7152 1.31144 25.246 1.31144C26.731 1.31144 28.1329 2.03935 28.9949 3.25867C29.1608 3.49314 29.4591 3.59314 29.7326 3.5039C30.1936 3.35444 30.6693 3.27865 31.1477 3.27865C33.6785 3.27865 35.7379 5.33769 35.7379 7.86885C35.7379 8.51443 35.6028 9.14388 35.3363 9.73971C35.2038 10.0361 35.308 10.3849 35.5815 10.5597C36.911 11.4106 37.7051 12.8558 37.7051 14.4262C37.7051 16.5209 36.2867 18.3472 34.2556 18.8672Z" fill="#0C0E1A"/>
<path d="M19.3442 30.1641H4.26221C3.89989 30.1641 3.60645 30.4578 3.60645 30.8198C3.60645 31.1819 3.89989 31.4756 4.26221 31.4756H19.3441C19.7065 31.4756 19.9999 31.1819 19.9999 30.8198C19.9999 30.4578 19.7065 30.1641 19.3442 30.1641Z" fill="#0C0E1A"/>
<path d="M19.3442 28.1973H4.26221C3.89989 28.1973 3.60645 28.491 3.60645 28.853C3.60645 29.2151 3.89989 29.5088 4.26221 29.5088H19.3441C19.7065 29.5088 19.9999 29.2151 19.9999 28.853C19.9999 28.491 19.7065 28.1973 19.3442 28.1973Z" fill="#0C0E1A"/>
<path d="M25.1918 21.9512C24.9594 21.6751 24.546 21.6378 24.2679 21.8725C23.4423 22.568 22.3928 22.9509 21.3118 22.9509C18.7809 22.9509 16.7216 20.8919 16.7216 18.3607C16.7216 15.8296 18.7809 13.7705 21.3118 13.7705C21.6741 13.7705 21.9676 13.4768 21.9676 13.1148C21.9676 12.7527 21.6741 12.459 21.3118 12.459C18.0573 12.459 15.4102 15.1066 15.4102 18.3606C15.4102 21.6147 18.0573 24.2623 21.3118 24.2623C22.7013 24.2623 24.0511 23.7698 25.1131 22.875C25.3899 22.6417 25.425 22.2282 25.1918 21.9512Z" fill="#0C0E1A"/>
<path d="M31.1476 1.9668C30.5264 1.9668 29.9135 2.06324 29.327 2.25333C28.9825 2.36485 28.7936 2.73466 28.905 3.07921C29.0166 3.42347 29.3873 3.61395 29.7306 3.5009C30.187 3.35335 30.6641 3.27824 31.1476 3.27824C33.6785 3.27824 35.7378 5.33728 35.7378 7.86843C35.7378 9.78185 34.5326 11.5124 32.7392 12.1756C32.3995 12.3009 32.2254 12.6783 32.3516 13.018C32.449 13.2829 32.7001 13.4468 32.9664 13.4468C33.0418 13.4468 33.1188 13.4337 33.1935 13.4058C35.4994 12.5533 37.0493 10.3281 37.0493 7.86843C37.0493 4.61437 34.402 1.9668 31.1476 1.9668Z" fill="#0C0E1A"/>
<path d="M31.1013 39.1012C31.0783 39.0448 28.8504 33.378 28.5233 27.5039C28.4747 26.624 28.44 25.7499 28.417 24.8993C28.4068 24.5436 28.1154 24.262 27.7619 24.262C27.7554 24.262 27.7491 24.262 27.7436 24.262C27.3812 24.2721 27.0963 24.5738 27.1059 24.9357C27.1302 25.7977 27.1648 26.6839 27.2147 27.577C27.4786 32.3262 28.8944 36.8226 29.5508 38.6881H23.5531C24.2056 36.7799 25.6488 32.1209 25.9006 27.577C25.9685 26.3688 26.0124 25.0361 26.0323 23.6154C26.0372 23.2535 25.7477 22.9557 25.3855 22.9505C25.0186 22.939 24.7262 23.2351 24.7209 23.5971C24.7009 24.9997 24.6573 26.3145 24.5914 27.5046C24.2822 33.078 22.0324 39.0511 22.0101 39.1108C21.9334 39.3128 21.9609 39.5387 22.0832 39.7164C22.2055 39.8938 22.4071 39.9996 22.6229 39.9996H30.4917C30.7088 39.9996 30.9123 39.8921 31.034 39.7118C31.1564 39.5318 31.1813 39.3032 31.1013 39.1012Z" fill="#0C0E1A"/>
</svg>
