<svg
        class="categories__card-image"
        width="40"
        height="40"
        viewbox="0 0 40 40"
        fill="none"
        xmlns="http://www.w3.org/2000/svg"
>
    <path
            d="M39.3333 38.6667H35.3333V16.6667C35.3333 16.2985 35.0348 16 34.6667 16H25.3333V0.666667C25.3333 0.2985 25.0348 0 24.6667 0H7.33333C6.96517 0 6.66667 0.2985 6.66667 0.666667V38.6667H0.666667C0.2985 38.6667 0 38.9652 0 39.3333C0 39.7015 0.2985 40 0.666667 40H39.3333C39.7015 40 40 39.7015 40 39.3333C40 38.9652 39.7015 38.6667 39.3333 38.6667ZM14 38.6667H11.3333V32.6667C11.3333 32.2985 11.6318 32 12 32H13.3333C13.7015 32 14 32.2985 14 32.6667V38.6667ZM16.6667 16.6667V38.6667H15.3333V32.6667C15.3333 31.5621 14.4379 30.6667 13.3333 30.6667H12C10.8954 30.6667 10 31.5621 10 32.6667V38.6667H8V1.33333H24V16H17.3333C16.9652 16 16.6667 16.2985 16.6667 16.6667ZM34 38.6667H18V17.3333H34V38.6667Z"
            fill="#0C0E1A"
    />
    <path
            d="M21.3332 9.33301H17.3332C16.965 9.33301 16.6665 9.63151 16.6665 9.99967V13.9997C16.6665 14.3678 16.965 14.6663 17.3332 14.6663H21.3332C21.7013 14.6663 21.9998 14.3678 21.9998 13.9997V9.99967C21.9998 9.63151 21.7013 9.33301 21.3332 9.33301ZM20.6665 13.333H17.9998V10.6663H20.6665V13.333Z"
            fill="#0C0E1A"
    />
    <path
            d="M21.3332 2.66699H17.3332C16.965 2.66699 16.6665 2.96549 16.6665 3.33366V7.33366C16.6665 7.70182 16.965 8.00032 17.3332 8.00032H21.3332C21.7013 8.00032 21.9998 7.70182 21.9998 7.33366V3.33366C21.9998 2.96549 21.7013 2.66699 21.3332 2.66699ZM20.6665 6.66699H17.9998V4.00033H20.6665V6.66699Z"
            fill="#0C0E1A"
    />
    <path
            d="M14.6667 9.33301H10.6667C10.2985 9.33301 10 9.63151 10 9.99967V13.9997C10 14.3678 10.2985 14.6663 10.6667 14.6663H14.6667C15.0348 14.6663 15.3333 14.3678 15.3333 13.9997V9.99967C15.3333 9.63151 15.0348 9.33301 14.6667 9.33301ZM14 13.333H11.3333V10.6663H14V13.333Z"
            fill="#0C0E1A"
    />
    <path
            d="M14.6667 2.66699H10.6667C10.2985 2.66699 10 2.96549 10 3.33366V7.33366C10 7.70182 10.2985 8.00032 10.6667 8.00032H14.6667C15.0348 8.00032 15.3333 7.70182 15.3333 7.33366V3.33366C15.3333 2.96549 15.0348 2.66699 14.6667 2.66699ZM14 6.66699H11.3333V4.00033H14V6.66699Z"
            fill="#0C0E1A"
    />
    <path
            d="M14.6667 16H10.6667C10.2985 16 10 16.2985 10 16.6667V20.6667C10 21.0348 10.2985 21.3333 10.6667 21.3333H14.6667C15.0348 21.3333 15.3333 21.0348 15.3333 20.6667V16.6667C15.3333 16.2985 15.0348 16 14.6667 16ZM14 20H11.3333V17.3333H14V20Z"
            fill="#0C0E1A"
    />
    <path
            d="M14.6667 22.667H10.6667C10.2985 22.667 10 22.9655 10 23.3337V27.3337C10 27.7018 10.2985 28.0003 10.6667 28.0003H14.6667C15.0348 28.0003 15.3333 27.7018 15.3333 27.3337V23.3337C15.3333 22.9655 15.0348 22.667 14.6667 22.667ZM14 26.667H11.3333V24.0003H14V26.667Z"
            fill="#0C0E1A"
    />
    <path
            d="M27.3332 30.6663H31.3332C31.7013 30.6663 31.9998 30.3678 31.9998 29.9997V25.9997C31.9998 25.6315 31.7013 25.333 31.3332 25.333H27.3332C26.965 25.333 26.6665 25.6315 26.6665 25.9997V29.9997C26.6665 30.3678 26.965 30.6663 27.3332 30.6663ZM27.9998 26.6663H30.6665V29.333H27.9998V26.6663Z"
            fill="#0C0E1A"
    />
    <path
            d="M27.3332 24.0003H31.3332C31.7013 24.0003 31.9998 23.7018 31.9998 23.3337V19.3337C31.9998 18.9655 31.7013 18.667 31.3332 18.667H27.3332C26.965 18.667 26.6665 18.9655 26.6665 19.3337V23.3337C26.6665 23.7018 26.965 24.0003 27.3332 24.0003ZM27.9998 20.0003H30.6665V22.667H27.9998V20.0003Z"
            fill="#0C0E1A"
    />
    <path
            d="M27.3332 37.3333H31.3332C31.7013 37.3333 31.9998 37.0348 31.9998 36.6667V32.6667C31.9998 32.2985 31.7013 32 31.3332 32H27.3332C26.965 32 26.6665 32.2985 26.6665 32.6667V36.6667C26.6665 37.0348 26.965 37.3333 27.3332 37.3333ZM27.9998 33.3333H30.6665V36H27.9998V33.3333Z"
            fill="#0C0E1A"
    />
    <path
            d="M20.6667 30.6663H24.6667C25.0348 30.6663 25.3333 30.3678 25.3333 29.9997V25.9997C25.3333 25.6315 25.0348 25.333 24.6667 25.333H20.6667C20.2985 25.333 20 25.6315 20 25.9997V29.9997C20 30.3678 20.2985 30.6663 20.6667 30.6663ZM21.3333 26.6663H24V29.333H21.3333V26.6663Z"
            fill="#0C0E1A"
    />
    <path
            d="M20.6667 24.0003H24.6667C25.0348 24.0003 25.3333 23.7018 25.3333 23.3337V19.3337C25.3333 18.9655 25.0348 18.667 24.6667 18.667H20.6667C20.2985 18.667 20 18.9655 20 19.3337V23.3337C20 23.7018 20.2985 24.0003 20.6667 24.0003ZM21.3333 20.0003H24V22.667H21.3333V20.0003Z"
            fill="#0C0E1A"
    />
    <path
            d="M20.6667 37.3333H24.6667C25.0348 37.3333 25.3333 37.0348 25.3333 36.6667V32.6667C25.3333 32.2985 25.0348 32 24.6667 32H20.6667C20.2985 32 20 32.2985 20 32.6667V36.6667C20 37.0348 20.2985 37.3333 20.6667 37.3333ZM21.3333 33.3333H24V36H21.3333V33.3333Z"
            fill="#0C0E1A"
    />
</svg>