<svg
        class="categories__card-image"
        width="40"
        height="40"
        viewbox="0 0 40 40"
        fill="none"
        xmlns="http://www.w3.org/2000/svg"
>
    <path
            d="M27.8125 10.9375C27.1701 10.9375 26.5723 11.1325 26.0751 11.4664C25.6531 10.2594 24.4998 9.375 23.125 9.375C22.1927 9.375 21.3553 9.78577 20.7822 10.4355C20.1776 9.75067 19.3344 9.375 18.4375 9.375C17.5049 9.375 16.6669 9.78638 16.0938 10.4364C15.5206 9.78638 14.6826 9.375 13.75 9.375C12.027 9.375 10.625 10.777 10.625 12.5V16.8765C9.65179 17.6089 9.0625 18.7671 9.0625 20C9.0625 24.1632 11.0233 28.1104 14.375 30.625C14.9551 31.0602 15.3125 31.7493 15.3125 32.5V39.2188C15.3125 39.6503 15.6622 40 16.0938 40H28.5938C29.0253 40 29.375 39.6503 29.375 39.2188V32.6257C29.8834 31.0791 30.2731 29.4809 30.5344 27.8732C30.802 26.2231 30.9375 24.5401 30.9375 22.8711C30.9375 21.8607 30.9375 15.0784 30.9375 14.0625C30.9375 12.3361 29.5392 10.9375 27.8125 10.9375ZM27.8125 12.5C28.6755 12.5 29.375 13.1995 29.375 14.0625V19.2188C29.375 20.0803 28.674 20.7812 27.8125 20.7812C26.951 20.7812 26.25 20.0803 26.25 19.2188C26.25 17.8909 26.25 15.2789 26.25 14.0625C26.25 13.201 26.951 12.5 27.8125 12.5ZM23.125 10.9375C23.988 10.9375 24.6875 11.637 24.6875 12.5V17.6562C24.6875 18.5178 23.9865 19.2188 23.125 19.2188C22.2635 19.2188 21.5625 18.5178 21.5625 17.6562V12.5C21.5625 11.6385 22.2635 10.9375 23.125 10.9375ZM18.4375 10.9375C19.3005 10.9375 20 11.637 20 12.5V16.0938H16.875V12.5C16.875 11.6385 17.576 10.9375 18.4375 10.9375ZM13.75 10.9375C14.6115 10.9375 15.3125 11.6385 15.3125 12.5V16.0938H12.9688C12.7054 16.0938 12.4438 16.1209 12.1875 16.1731V12.5C12.1875 11.6385 12.8885 10.9375 13.75 10.9375ZM16.875 38.4375V34.8438H27.8125V38.4375H16.875ZM28.9923 27.623C28.4888 30.7202 27.8125 32.1252 27.8125 32.5V33.2812H16.875V32.5C16.875 31.2897 16.311 30.1239 15.3125 29.375C12.3505 27.1527 10.625 23.6679 10.625 20C10.625 18.7302 11.6525 17.6553 12.9688 17.6553H19.9216C19.5587 19.4363 17.98 20.7812 16.0938 20.7812H14.5312C14.0997 20.7812 13.75 21.131 13.75 21.5625C13.75 21.994 14.0997 22.3438 14.5312 22.3438H15.3125C16.799 22.3438 18.0881 23.4 18.3774 24.8547C18.461 25.275 18.8699 25.5533 19.2963 25.4684C19.7192 25.3845 19.9942 24.9731 19.91 24.5499C19.6954 23.4711 19.1144 22.5388 18.313 21.8713C19.335 21.4154 20.1935 20.6564 20.7703 19.7073C21.3437 20.3647 22.1863 20.7812 23.125 20.7812C23.768 20.7812 24.3662 20.5859 24.8636 20.2515C25.2911 21.4685 26.4511 22.3438 27.8125 22.3438C28.3813 22.3438 28.9151 22.1902 29.375 21.9232V22.8711C29.375 24.4565 29.2462 26.0556 28.9923 27.623Z"
            fill="#0C0E1A"
    />
    <path
            d="M21.5625 5.46875V0.78125C21.5625 0.349731 21.2128 0 20.7812 0C20.3497 0 20 0.349731 20 0.78125V5.46875C20 5.90027 20.3497 6.25 20.7812 6.25C21.2128 6.25 21.5625 5.90027 21.5625 5.46875Z"
            fill="#0C0E1A"
    />
    <path
            d="M26.819 6.46222L30.1332 3.14709C30.4381 2.84192 30.4381 2.34753 30.1329 2.04236C29.8277 1.73718 29.3334 1.73718 29.0282 2.04236L25.714 5.35718C25.4091 5.66235 25.4091 6.15704 25.7143 6.46222C26.0194 6.76709 26.5138 6.76739 26.819 6.46222Z"
            fill="#0C0E1A"
    />
    <path
            d="M16.3063 6.00498C16.6115 5.69981 16.6112 5.20512 16.3063 4.90025L12.9912 1.58604C12.6863 1.28117 12.1917 1.28117 11.8865 1.58634C11.5813 1.89121 11.5816 2.3859 11.8865 2.69108L15.2013 6.00529C15.5065 6.31016 16.0012 6.31016 16.3063 6.00498Z"
            fill="#0C0E1A"
    />
</svg>